<?xml version="1.0" encoding="utf-8"?>
<svg id="master-artboard" viewBox="0 0 1400 980" version="1.1" xmlns="http://www.w3.org/2000/svg" x="0px" y="0px" style="enable-background:new 0 0 336 235.2;" width="1400px" height="980px"><rect id="ee-background" x="0" y="0" width="1400" height="980" style="fill: white; fill-opacity: 0; pointer-events: none;"/><defs><style id="ee-google-fonts">@import url(https://fonts.googleapis.com/css?family=Audiowide:400);</style></defs>





















































































































































<g transform="matrix(0.98, 0, 0, 0.98, 210.0000724673382, 0)"><metadata> Svg Vector Icons : http://www.onlinewebfonts.com/icon </metadata><g><path d="M408.2,661.7c-33.8,56.1-11,102.3,35.9,128.2c46.9,25.9,100,21.8,133.9-34.4c33.8-56.1,247.3-556.9,228.7-567.2C788.1,178.1,442.1,605.6,408.2,661.7z" style="fill: rgb(241, 78, 0);"/><path d="M500,305c21.4,0,42.4,1.8,62.8,5.1c21.5-25.7,45.5-54.1,68.9-81.1c-41.8-11.6-85.9-17.9-131.6-17.9C225.2,211.1,10,433,10,716.3c0,17.4,0.8,34.9,2.4,51.9c2.4,25.8,26.5,44.8,53.2,42.6c27-2.3,46.9-25.1,44.5-50.9c-1.3-14.2-2-28.9-2-43.5C108,485.6,280.2,305,500,305z" style="fill: rgb(51, 164, 211);"/><path d="M853.7,363.6c-13.7,35.2-28.1,71.1-40.9,102.1c49.8,68.9,79.2,155.5,79.2,250.6c0,14.9-0.7,29.8-2.1,44.4c-2.5,25.8,17.4,48.6,44.4,51c1.5,0.1,3,0.2,4.5,0.2c25,0,46.4-18.3,48.7-42.7c1.7-17.4,2.5-35.2,2.5-52.9C990,577.8,938.4,454,853.7,363.6z" style="fill: rgb(164, 195, 47);"/><path d="M 239.30203247070312 302.21490478515625" style="fill: rgb(241, 78, 0); fill-opacity: 1; stroke: rgb(0, 0, 0); stroke-opacity: 1; stroke-width: 0; paint-order: fill;"/><path d="M 233.1859588623047 352.67254638671875" style="fill: rgb(241, 78, 0); fill-opacity: 1; stroke: rgb(0, 0, 0); stroke-opacity: 1; stroke-width: 0; paint-order: fill;"/><path d="M 930.4187622070312 660.0054321289062" style="fill: rgb(51, 164, 211); fill-opacity: 1; stroke: rgb(0, 0, 0); stroke-opacity: 1; stroke-width: 0; paint-order: fill;"/><path d="M 225.54086303710938 1291.4903564453125" style="fill: rgb(164, 195, 47); fill-opacity: 1; stroke: rgb(0, 0, 0); stroke-opacity: 1; stroke-width: 0; paint-order: fill;"/></g></g></svg>